<svg width="35" height="35" viewBox="0 0 35 35" fill="none" xmlns="http://www.w3.org/2000/svg">
<rect x="1.73008" y="1.27867" width="32.4067" height="32.4067" rx="3.08635" fill="#8719E0" fill-opacity="0.02" stroke="#1E123B" stroke-width="1.54318"/>
<g clip-path="url(#clip0_59_16)">
<path fill-rule="evenodd" clip-rule="evenodd" d="M25.4161 10.0476C24.8735 9.50516 24.1376 9.20044 23.3704 9.20044C22.6031 9.20044 21.8673 9.50516 21.3247 10.0476L20.6428 10.7305L25.417 15.5047L26.0979 14.8228C26.3667 14.5541 26.5799 14.2351 26.7253 13.884C26.8707 13.5329 26.9456 13.1566 26.9456 12.7766C26.9456 12.3966 26.8707 12.0203 26.7253 11.6692C26.5799 11.3181 26.3667 10.9991 26.0979 10.7305L25.4161 10.0476ZM24.0523 16.8684L19.2781 12.0942L10.5109 20.8624C10.3191 21.0543 10.185 21.2962 10.1242 21.5607L9.1317 25.8574C9.09472 26.017 9.09896 26.1833 9.14402 26.3407C9.18909 26.4981 9.27349 26.6415 9.38927 26.7572C9.50506 26.873 9.64842 26.9574 9.80584 27.0025C9.96326 27.0476 10.1296 27.0518 10.2891 27.0148L14.5868 26.0233C14.8509 25.9623 15.0925 25.8283 15.2841 25.6366L24.0523 16.8684Z" fill="#1E123B"/>
</g>
<defs>
<clipPath id="clip0_59_16">
<rect width="23.1476" height="23.1476" fill="white" transform="translate(6 7)"/>
</clipPath>
</defs>
</svg>
